<?xml version="1.0" encoding="utf-8"?>
<!-- Generator: Adobe Illustrator 24.3.0, SVG Export Plug-In . SVG Version: 6.00 Build 0)  -->
<svg version="1.1" id="Layer_1" xmlns="http://www.w3.org/2000/svg" xmlns:xlink="http://www.w3.org/1999/xlink" x="0px" y="0px"
	 width="32px" height="32px" viewBox="0 0 300 300" enable-background="new 0 0 300 300" xml:space="preserve">
<g>
	<g>
		<g>
			<path fill="#E5E5E4" d="M259.63,42.398H39.955c-10.335,0-19.077,8.596-19.077,18.925v131.718h258.245V61.323
				C279.123,50.994,269.965,42.398,259.63,42.398z"/>
		</g>
		<g>
			<path fill="#EFEFEF" d="M56.095,42.398h-16.14c-10.335,0-19.077,8.596-19.077,18.925v131.718h16.14V61.323
				C37.018,50.994,45.76,42.398,56.095,42.398z"/>
		</g>
		<g>
			<rect x="133.86" y="219.941" fill="#E5E5E4" width="26.901" height="21.521"/>
		</g>
		<g>
			<rect x="101.579" y="241.462" fill="#9AD7D2" width="91.462" height="16.14"/>
		</g>
		<g>
			<path fill="#9AD7D2" d="M20.877,193.041v8.385c0,10.329,8.743,18.515,19.077,18.515H259.63c10.335,0,19.492-8.186,19.492-18.515
				v-8.385H20.877z"/>
		</g>
		<g>
			<path fill="#ABEDE6" d="M37.018,201.426v-8.385h-16.14v8.385c0,10.329,8.743,18.515,19.077,18.515h16.14
				C45.76,219.941,37.018,211.756,37.018,201.426z"/>
		</g>
		<g>
			<path fill="#E5E5E4" d="M150,206.491c0,1.487-1.203,2.69-2.69,2.69c-1.487,0-2.69-1.203-2.69-2.69c0-1.487,1.203-2.69,2.69-2.69
				C148.797,203.801,150,205.004,150,206.491z"/>
		</g>
		<g>
			<polygon fill="#FE6F80" points="150,63.918 85.439,171.52 214.561,171.52 			"/>
		</g>
		<g>
			<path fill="#E5E5E4" d="M155.38,139.24c0,2.974-2.409,5.38-5.38,5.38l0,0c-2.971,0-5.38-2.406-5.38-5.38v-37.661
				c0-2.974,2.409-5.38,5.38-5.38l0,0c2.971,0,5.38,2.407,5.38,5.38V139.24z"/>
		</g>
		<g>
			<circle fill="#E5E5E4" cx="150" cy="155.38" r="5.38"/>
		</g>
		<g>
			<rect x="101.579" y="241.462" fill="#ABEDE6" width="10.76" height="16.14"/>
		</g>
		<g>
			<rect x="133.86" y="219.941" fill="#EFEFEF" width="10.76" height="21.521"/>
		</g>
	</g>
	<g>
		<g>
			<path fill="#161616" d="M160.76,246.842H133.86c-2.971,0-5.38-2.406-5.38-5.38v-21.521c0-2.974,2.409-5.38,5.38-5.38h26.901
				c2.971,0,5.38,2.406,5.38,5.38v21.521C166.14,244.436,163.731,246.842,160.76,246.842z M139.24,236.082h16.14v-10.76h-16.14
				V236.082z"/>
		</g>
		<g>
			<path fill="#161616" d="M193.041,262.982h-91.462c-2.971,0-5.38-2.406-5.38-5.38v-16.14c0-2.974,2.409-5.38,5.38-5.38h91.462
				c2.971,0,5.38,2.406,5.38,5.38v16.14C198.421,260.576,196.012,262.982,193.041,262.982z M106.959,252.222h80.702v-5.38h-80.702
				V252.222z"/>
		</g>
		<g>
			<path fill="#161616" d="M259.63,225.321H39.955c-13.487,0-24.457-10.718-24.457-23.895v-8.385c0-2.974,2.409-5.38,5.38-5.38
				h258.245c2.971,0,5.38,2.406,5.38,5.38v8.385C284.503,214.377,273.112,225.321,259.63,225.321z M26.257,198.421v3.005
				c0,7.245,6.145,13.135,13.697,13.135H259.63c7.65,0,14.112-6.016,14.112-13.135v-3.005H26.257z"/>
		</g>
		<g>
			<path fill="#161616" d="M150,206.491c0,1.487-1.203,2.69-2.69,2.69c-1.487,0-2.69-1.203-2.69-2.69c0-1.487,1.203-2.69,2.69-2.69
				C148.797,203.801,150,205.004,150,206.491z"/>
		</g>
		<g>
			<path fill="#161616" d="M155.38,139.24c0,2.974-2.409,5.38-5.38,5.38l0,0c-2.971,0-5.38-2.406-5.38-5.38v-37.661
				c0-2.974,2.409-5.38,5.38-5.38l0,0c2.971,0,5.38,2.407,5.38,5.38V139.24z"/>
		</g>
		<g>
			<circle fill="#161616" cx="150" cy="155.38" r="5.38"/>
		</g>
		<g>
			<path fill="#161616" d="M279.123,198.421H20.877c-2.971,0-5.38-2.406-5.38-5.38V96.199c0-2.974,2.409-5.38,5.38-5.38
				c2.971,0,5.38,2.406,5.38,5.38v91.462h247.485V61.323c0-7.214-6.594-13.545-14.112-13.545H39.955
				c-7.424,0-13.697,6.205-13.697,13.545v13.356c0,2.974-2.409,5.38-5.38,5.38c-2.971,0-5.38-2.406-5.38-5.38V61.323
				c0-13.177,11.199-24.305,24.457-24.305H259.63c13.482,0,24.872,11.128,24.872,24.305v131.718
				C284.503,196.015,282.094,198.421,279.123,198.421z"/>
		</g>
		<g>
			<path fill="#161616" d="M214.561,176.901H85.439c-1.939,0-3.728-1.04-4.681-2.727c-0.956-1.692-0.93-3.762,0.068-5.422
				l64.561-107.602c1.944-3.236,7.282-3.236,9.226,0l41.596,69.327c1.529,2.548,0.704,5.853-1.844,7.382
				c-2.546,1.524-5.85,0.704-7.382-1.844L150,74.374L94.941,166.14h110.119l-7.006-11.674c-1.529-2.548-0.704-5.853,1.844-7.382
				c2.543-1.534,5.85-0.704,7.382,1.844l11.895,19.823c0.998,1.66,1.025,3.73,0.068,5.422
				C218.289,175.86,216.5,176.901,214.561,176.901z"/>
		</g>
	</g>
</g>
</svg>
