<svg width="320" height="321" viewBox="0 0 320 321" fill="none" xmlns="http://www.w3.org/2000/svg">
<path d="M310.6 266.4C323.1 278.9 323.1 299.15 310.6 311.65C304.4 317.9 296.2 321 288 321C279.8 321 271.62 317.875 265.38 311.625L160 206.3L54.63 311.6C48.38 317.9 40.19 321 32 321C23.81 321 15.63 317.9 9.375 311.6C-3.125 299.1 -3.125 278.85 9.375 266.35L114.775 160.95L9.375 55.6001C-3.125 43.1001 -3.125 22.8501 9.375 10.3501C21.875 -2.1499 42.125 -2.1499 54.625 10.3501L160 115.8L265.4 10.4001C277.9 -2.0999 298.15 -2.0999 310.65 10.4001C323.15 22.9001 323.15 43.1501 310.65 55.6501L205.25 161.05L310.6 266.4Z" fill="#999999"/>
</svg>
