<svg width="24" height="24" viewBox="0 0 24 24" fill="none" xmlns="http://www.w3.org/2000/svg">
<path fill-rule="evenodd" clip-rule="evenodd" d="M20.8649 17.2C20.7357 17.0799 20.6376 16.9553 20.6044 16.84C20.4739 16.383 20.646 15.0548 20.9048 14.6401C21.1628 14.2239 20.877 12.975 20.7926 12.7683C20.7058 12.5604 20.6767 12.2906 20.3805 12.3724C20.0826 12.4558 19.4132 12.4247 18.8078 12.3002C18.2008 12.1768 17.6723 11.5921 17.5514 10.9328C17.416 10.1937 17.416 9.47567 17.5888 9.02547C17.782 8.5194 18.2577 8.32783 18.6932 8.08916C18.8938 7.97981 19.8644 7.82496 19.8279 7.358C19.6023 6.92776 17.5418 7.41707 17.4592 6.74856C17.3756 6.07886 17.3461 5.74281 17.6075 5.20401C17.8817 4.64207 17.5664 4.7171 17.4907 4.03583C17.4804 3.93884 17.6952 3.6882 17.7122 3.6C18.4231 4.0043 19.0908 4.48762 19.6899 5.06313C21.5667 6.8667 22.6 9.26454 22.6 11.8152C22.6 13.7669 21.9905 15.6255 20.8649 17.2ZM14.4437 16.8971C14.034 17.5476 14.1325 18.0268 13.1978 18.5241C12.6772 18.8014 12.3068 18.88 12.0314 19.6248C11.7548 20.368 11.2962 20.3418 10.1513 20.9456C9.00471 21.5509 8.54928 20.9456 8.45589 20.4813C8.36289 20.017 8.64545 18.9203 8.64545 18.9203C8.64545 18.9203 8.75752 18.5927 7.94521 18.2227C5.89098 17.2872 7.66344 14.0029 7.66344 14.0029C7.19926 13.4596 6.02053 12.394 4.37484 12.045C2.80148 11.7121 2.3528 10.7887 1.8 9.867C2.20457 8.16055 3.05464 6.59235 4.30967 5.31877C6.10479 3.49786 8.49086 2.4 11.0315 2.4C11.0315 2.4 11.8883 2.4 12.6971 2.6124C11.9575 3.42653 11.1301 4.24952 10.5153 4.47643C9.40849 4.88752 8.89543 5.56099 8.89066 6.27839C8.88827 6.64999 9.65767 7.32345 9.65767 8.17547C9.65767 9.62356 8.59498 9.65702 8.47099 9.04682C8.19121 7.66281 7.12097 8.0203 5.83931 8.15894C4.55567 8.29879 3.77793 9.81017 4.60216 10.4147C5.42799 11.0193 5.38547 10.2237 5.703 9.99677C6.01895 9.76946 6.24229 9.67959 6.48233 9.99677C6.72038 10.314 7.23662 10.4865 7.18694 11.1374C7.14363 11.7879 7.00453 12.3448 7.87685 12.3448C8.74798 12.3448 8.77819 12.5391 9.33099 12.8176C9.87823 13.0965 10.3965 13.0441 10.8531 13.1376C11.3117 13.2299 11.9126 14.1279 11.9126 14.1279C13.2125 14.5539 13.6401 14.728 13.999 15.0907C14.3567 15.4534 14.8582 16.2462 14.4437 16.8971ZM11.9986 0H11.9954H11.9922C7.23149 0 3.13019 2.7812 1.19038 6.8C0.430136 8.3748 8.94955e-08 10.1344 8.94955e-08 12C-0.000800164 18.6264 5.3653 24 11.9938 24H11.997H12.0002C18.6263 24 24.0008 18.6264 24 12.0016C24.0008 5.314 18.5467 0 11.9986 0Z" fill="white"/>
</svg>
