<svg width="16" height="16" viewBox="0 0 16 16" fill="none" xmlns="http://www.w3.org/2000/svg">
<path fill-rule="evenodd" clip-rule="evenodd" d="M7.86336 8.6C6.2805 8.6 5 7.34652 5 5.80013C5 4.25455 6.2805 3 7.86336 3C9.44567 3 10.7273 4.25455 10.7273 5.80013C10.7273 7.34652 9.44567 8.6 7.86336 8.6M7.97247 0C4.6439 0 2 2.74355 2 6.12763C2 10.7409 7.05847 15.508 7.05847 15.508C7.73903 16.1381 8.16178 16.1894 8.88536 15.508C8.88536 15.508 14 10.7409 14 6.12763C14 2.74355 11.3008 0 7.97247 0" fill="#F55A5A"/>
</svg>
