<svg width="16" height="16" viewBox="0 0 16 16" fill="none" xmlns="http://www.w3.org/2000/svg">
<path d="M13.7143 1.33331H2.28275C1.75894 1.33331 1.33334 1.76486 1.33334 2.29462V13.7053C1.33334 14.2351 1.75894 14.6666 2.28275 14.6666H13.7143C14.2381 14.6666 14.6667 14.2351 14.6667 13.7053V2.29462C14.6667 1.76486 14.2381 1.33331 13.7143 1.33331ZM5.36311 12.7619H3.38691V6.39879H5.36608V12.7619H5.36311ZM4.37501 5.52974C3.74108 5.52974 3.22918 5.01486 3.22918 4.38391C3.22918 3.75296 3.74108 3.23808 4.37501 3.23808C5.00596 3.23808 5.52084 3.75296 5.52084 4.38391C5.52084 5.01784 5.00894 5.52974 4.37501 5.52974ZM12.7708 12.7619H10.7947V9.66665C10.7947 8.92855 10.7798 7.97915 9.76787 7.97915C8.73811 7.97915 8.58037 8.78272 8.58037 9.61308V12.7619H6.60418V6.39879H8.50001V7.26784H8.5268C8.79168 6.76784 9.43751 6.24105 10.3988 6.24105C12.3988 6.24105 12.7708 7.5595 12.7708 9.27379V12.7619Z" fill="white"/>
</svg>
