<?xml version="1.0" encoding="utf-8"?>
<!-- Generator: Adobe Illustrator 16.0.0, SVG Export Plug-In . SVG Version: 6.00 Build 0)  -->
<!DOCTYPE svg PUBLIC "-//W3C//DTD SVG 1.1//EN" "http://www.w3.org/Graphics/SVG/1.1/DTD/svg11.dtd">
<svg version="1.1" id="icons" xmlns="http://www.w3.org/2000/svg" xmlns:xlink="http://www.w3.org/1999/xlink" x="0px" y="0px"
	 width="32px" height="32px" viewBox="0 0 64 64" enable-background="new 0 0 64 64" xml:space="preserve">
<g>
	<g>
		<path fill="#E6E9ED" d="M57.996,22.5v0.01h-53c-1.66,0-3,1.34-3,2.99v21c0,1.66,1.34,3,3,3h53h0.04c1.64-0.02,2.96-1.35,2.96-3
			v-21C60.996,23.84,59.656,22.5,57.996,22.5z"/>
	</g>
	<g>
		<rect x="47.996" y="36.5" fill="#FFFFFF" width="3" height="3"/>
	</g>
	<g>
		<rect x="29.996" y="30.51" fill="#FFFFFF" width="3" height="3"/>
	</g>
	<g>
		<rect x="17.996" y="30.51" fill="#FFFFFF" width="3" height="3"/>
	</g>
	<g>
		<rect x="17.996" y="42.5" fill="#FFFFFF" width="27" height="3"/>
	</g>
	<g>
		<rect x="47.986" y="42.5" fill="#FFFFFF" width="3" height="3"/>
	</g>
	<g>
		<rect x="5.996" y="42.5" fill="#FFFFFF" width="3" height="3"/>
	</g>
	<g>
		<rect x="5.996" y="36.5" fill="#FFFFFF" width="9" height="3"/>
	</g>
	<g>
		<rect x="41.986" y="30.51" fill="#FFFFFF" width="3" height="3"/>
	</g>
	<g>
		<rect x="53.996" y="42.5" fill="#FFFFFF" width="3" height="3"/>
	</g>
	<g>
		<rect x="47.996" y="30.51" fill="#FFFFFF" width="3" height="3"/>
	</g>
	<g>
		<rect x="17.996" y="36.5" fill="#FFFFFF" width="3" height="3"/>
	</g>
	<g>
		<rect x="29.996" y="36.5" fill="#FFFFFF" width="3" height="3"/>
	</g>
	<g>
		<rect x="35.996" y="36.5" fill="#FFFFFF" width="3" height="3"/>
	</g>
	<g>
		<rect x="35.996" y="30.51" fill="#FFFFFF" width="3" height="3"/>
	</g>
	<g>
		<rect x="53.996" y="30.51" fill="#FFFFFF" width="3" height="8.99"/>
	</g>
	<g>
		<rect x="41.986" y="36.5" fill="#FFFFFF" width="3" height="3"/>
	</g>
	<g>
		<rect x="23.996" y="36.5" fill="#FFFFFF" width="3" height="3"/>
	</g>
	<g>
		<rect x="11.996" y="30.51" fill="#FFFFFF" width="3" height="3"/>
	</g>
	<g>
		<rect x="11.996" y="42.5" fill="#FFFFFF" width="3" height="3"/>
	</g>
	<g>
		<rect x="23.996" y="30.51" fill="#FFFFFF" width="3" height="3"/>
	</g>
	<g>
		<rect x="5.996" y="30.51" fill="#FFFFFF" width="3" height="3"/>
	</g>
</g>
<g>
	<g>
		<path d="M9,34.506H6c-0.553,0-1-0.447-1-1v-3c0-0.553,0.447-1,1-1h3c0.553,0,1,0.447,1,1v3C10,34.059,9.553,34.506,9,34.506z
			 M7,32.506h1v-1H7V32.506z"/>
	</g>
	<g>
		<path d="M15,34.506h-3c-0.553,0-1-0.447-1-1v-3c0-0.553,0.447-1,1-1h3c0.553,0,1,0.447,1,1v3C16,34.059,15.553,34.506,15,34.506z
			 M13,32.506h1v-1h-1V32.506z"/>
	</g>
	<g>
		<path d="M20.998,34.506h-3c-0.553,0-1-0.447-1-1v-3c0-0.553,0.447-1,1-1h3c0.553,0,1,0.447,1,1v3
			C21.998,34.059,21.551,34.506,20.998,34.506z M18.998,32.506h1v-1h-1V32.506z"/>
	</g>
	<g>
		<path d="M26.998,34.506h-3c-0.553,0-1-0.447-1-1v-3c0-0.553,0.447-1,1-1h3c0.553,0,1,0.447,1,1v3
			C27.998,34.059,27.551,34.506,26.998,34.506z M24.998,32.506h1v-1h-1V32.506z"/>
	</g>
	<g>
		<path d="M32.996,34.506h-3c-0.553,0-1-0.447-1-1v-3c0-0.553,0.447-1,1-1h3c0.553,0,1,0.447,1,1v3
			C33.996,34.059,33.549,34.506,32.996,34.506z M30.996,32.506h1v-1h-1V32.506z"/>
	</g>
	<g>
		<path d="M38.996,34.506h-3c-0.553,0-1-0.447-1-1v-3c0-0.553,0.447-1,1-1h3c0.553,0,1,0.447,1,1v3
			C39.996,34.059,39.549,34.506,38.996,34.506z M36.996,32.506h1v-1h-1V32.506z"/>
	</g>
	<g>
		<path d="M44.994,34.506h-3c-0.553,0-1-0.447-1-1v-3c0-0.553,0.447-1,1-1h3c0.553,0,1,0.447,1,1v3
			C45.994,34.059,45.547,34.506,44.994,34.506z M42.994,32.506h1v-1h-1V32.506z"/>
	</g>
	<g>
		<path d="M51,34.506h-3c-0.553,0-1-0.447-1-1v-3c0-0.553,0.447-1,1-1h3c0.553,0,1,0.447,1,1v3C52,34.059,51.553,34.506,51,34.506z
			 M49,32.506h1v-1h-1V32.506z"/>
	</g>
	<g>
		<path d="M15,40.505H6c-0.553,0-1-0.447-1-1v-3c0-0.553,0.447-1,1-1h9c0.553,0,1,0.447,1,1v3C16,40.058,15.553,40.505,15,40.505z
			 M7,38.505h7v-1H7V38.505z"/>
	</g>
	<g>
		<path d="M20.998,40.505h-3c-0.553,0-1-0.447-1-1v-3c0-0.553,0.447-1,1-1h3c0.553,0,1,0.447,1,1v3
			C21.998,40.058,21.551,40.505,20.998,40.505z M18.998,38.505h1v-1h-1V38.505z"/>
	</g>
	<g>
		<path d="M26.998,40.505h-3c-0.553,0-1-0.447-1-1v-3c0-0.553,0.447-1,1-1h3c0.553,0,1,0.447,1,1v3
			C27.998,40.058,27.551,40.505,26.998,40.505z M24.998,38.505h1v-1h-1V38.505z"/>
	</g>
	<g>
		<path d="M32.996,40.505h-3c-0.553,0-1-0.447-1-1v-3c0-0.553,0.447-1,1-1h3c0.553,0,1,0.447,1,1v3
			C33.996,40.058,33.549,40.505,32.996,40.505z M30.996,38.505h1v-1h-1V38.505z"/>
	</g>
	<g>
		<path d="M38.996,40.505h-3c-0.553,0-1-0.447-1-1v-3c0-0.553,0.447-1,1-1h3c0.553,0,1,0.447,1,1v3
			C39.996,40.058,39.549,40.505,38.996,40.505z M36.996,38.505h1v-1h-1V38.505z"/>
	</g>
	<g>
		<path d="M44.994,40.505h-3c-0.553,0-1-0.447-1-1v-3c0-0.553,0.447-1,1-1h3c0.553,0,1,0.447,1,1v3
			C45.994,40.058,45.547,40.505,44.994,40.505z M42.994,38.505h1v-1h-1V38.505z"/>
	</g>
	<g>
		<path d="M9,46.504H6c-0.553,0-1-0.447-1-1v-3c0-0.553,0.447-1,1-1h3c0.553,0,1,0.447,1,1v3C10,46.057,9.553,46.504,9,46.504z
			 M7,44.504h1v-1H7V44.504z"/>
	</g>
	<g>
		<path d="M15,46.504h-3c-0.553,0-1-0.447-1-1v-3c0-0.553,0.447-1,1-1h3c0.553,0,1,0.447,1,1v3C16,46.057,15.553,46.504,15,46.504z
			 M13,44.504h1v-1h-1V44.504z"/>
	</g>
	<g>
		<path d="M45.002,46.504H17.998c-0.553,0-1-0.447-1-1v-3c0-0.553,0.447-1,1-1h27.004c0.553,0,1,0.447,1,1v3
			C46.002,46.057,45.555,46.504,45.002,46.504z M18.998,44.504h25.004v-1H18.998V44.504z"/>
	</g>
	<g>
		<path d="M51,40.498h-3c-0.553,0-1-0.447-1-1v-3c0-0.553,0.447-1,1-1h3c0.553,0,1,0.447,1,1v3C52,40.051,51.553,40.498,51,40.498z
			 M49,38.498h1v-1h-1V38.498z"/>
	</g>
	<g>
		<path d="M50.994,46.504h-3c-0.553,0-1-0.447-1-1v-3c0-0.553,0.447-1,1-1h3c0.553,0,1,0.447,1,1v3
			C51.994,46.057,51.547,46.504,50.994,46.504z M48.994,44.504h1v-1h-1V44.504z"/>
	</g>
	<g>
		<path d="M57,40.505h-3c-0.553,0-1-0.447-1-1v-8.999c0-0.553,0.447-1,1-1h3c0.553,0,1,0.447,1,1v8.999
			C58,40.058,57.553,40.505,57,40.505z M55,38.505h1v-6.999h-1V38.505z"/>
	</g>
	<g>
		<path d="M57,46.504h-3c-0.553,0-1-0.447-1-1v-3c0-0.553,0.447-1,1-1h3c0.553,0,1,0.447,1,1v3C58,46.057,57.553,46.504,57,46.504z
			 M55,44.504h1v-1h-1V44.504z"/>
	</g>
	<g>
		<path d="M58.002,50.496c-0.553,0-1-0.447-1-1s0.447-1,1-1c1.101,0,1.996-0.896,1.996-1.996c0-0.553,0.447-1,1-1s1,0.447,1,1
			C61.998,48.703,60.205,50.496,58.002,50.496z"/>
	</g>
	<g>
		<path d="M60.998,26.501c-0.553,0-1-0.447-1-1c0-1.101-0.896-1.996-1.996-1.996c-0.553,0-1-0.447-1-1s0.447-1,1-1
			c2.203,0,3.996,1.793,3.996,3.996C61.998,26.054,61.551,26.501,60.998,26.501z"/>
	</g>
	<g>
		<path d="M4.996,50.495c-2.202,0-3.994-1.792-3.994-3.995c0-0.553,0.447-1,1-1s1,0.447,1,1c0,1.101,0.895,1.995,1.994,1.995
			c0.553,0,1,0.447,1,1S5.549,50.495,4.996,50.495z"/>
	</g>
	<g>
		<path d="M2.002,26.501c-0.553,0-1-0.447-1-1c0-2.203,1.792-3.995,3.994-3.995c0.553,0,1,0.447,1,1s-0.447,1-1,1
			c-1.1,0-1.994,0.895-1.994,1.995C3.002,26.054,2.555,26.501,2.002,26.501z"/>
	</g>
	<g>
		<path d="M58.041,50.495H4.996c-0.553,0-1-0.447-1-1s0.447-1,1-1h53.045c0.553,0,1,0.447,1,1S58.594,50.495,58.041,50.495z"/>
	</g>
	<g>
		<path d="M2.002,47.5c-0.553,0-1-0.447-1-1V25.501c0-0.553,0.447-1,1-1s1,0.447,1,1V46.5C3.002,47.053,2.555,47.5,2.002,47.5z"/>
	</g>
	<g>
		<path d="M61,47.5c-0.553,0-1-0.447-1-1V25.501c0-0.553,0.447-1,1-1s1,0.447,1,1V46.5C62,47.053,61.553,47.5,61,47.5z"/>
	</g>
	<g>
		<path d="M58.002,23.506H4.996c-0.553,0-1-0.447-1-1s0.447-1,1-1h53.006c0.553,0,1,0.447,1,1S58.555,23.506,58.002,23.506z"/>
	</g>
	<g>
		<path d="M7.53,27.501c-0.553,0-1.005-0.447-1.005-1s0.442-1,0.994-1H7.53c0.552,0,1,0.447,1,1S8.082,27.501,7.53,27.501z"/>
	</g>
	<g>
		<path d="M13.53,27.501c-0.553,0-1.005-0.447-1.005-1s0.442-1,0.994-1h0.011c0.552,0,1,0.447,1,1S14.082,27.501,13.53,27.501z"/>
	</g>
	<g>
		<path d="M19.528,27.501c-0.553,0-1.005-0.447-1.005-1s0.442-1,0.994-1h0.011c0.552,0,1,0.447,1,1S20.08,27.501,19.528,27.501z"/>
	</g>
	<g>
		<path d="M25.528,27.501c-0.553,0-1.005-0.447-1.005-1s0.442-1,0.994-1h0.011c0.552,0,1,0.447,1,1S26.08,27.501,25.528,27.501z"/>
	</g>
	<g>
		<path d="M31.526,27.501c-0.553,0-1.005-0.447-1.005-1s0.442-1,0.994-1h0.011c0.552,0,1,0.447,1,1S32.078,27.501,31.526,27.501z"/>
	</g>
	<g>
		<path d="M37.526,27.501c-0.553,0-1.005-0.447-1.005-1s0.442-1,0.994-1h0.011c0.552,0,1,0.447,1,1S38.078,27.501,37.526,27.501z"/>
	</g>
	<g>
		<path d="M43.524,27.501c-0.553,0-1.005-0.447-1.005-1s0.442-1,0.994-1h0.011c0.552,0,1,0.447,1,1S44.076,27.501,43.524,27.501z"/>
	</g>
	<g>
		<path d="M49.524,27.501c-0.553,0-1.005-0.447-1.005-1s0.442-1,0.994-1h0.011c0.552,0,1,0.447,1,1S50.076,27.501,49.524,27.501z"/>
	</g>
	<g>
		<path d="M55.522,27.501c-0.553,0-1.005-0.447-1.005-1s0.442-1,0.994-1h0.011c0.552,0,1,0.447,1,1S56.074,27.501,55.522,27.501z"/>
	</g>
	<g>
		<g>
			<path d="M31.469,21.503c-0.553,0-1-0.447-1-1c0-1.654,1.346-3,3-3c0.553,0,1,0.447,1,1s-0.447,1-1,1c-0.552,0-1,0.448-1,1
				C32.469,21.056,32.021,21.503,31.469,21.503z"/>
		</g>
		<g>
			<path d="M61.002,19.502c-0.553,0-1-0.447-1-1s0.447-1,1-1c0.551,0,0.998-0.447,0.998-0.998s-0.447-0.998-0.998-0.998
				c-0.553,0-1-0.447-1-1s0.447-1,1-1c1.653,0,2.998,1.345,2.998,2.998S62.655,19.502,61.002,19.502z"/>
		</g>
		<g>
			<path d="M61.002,15.504H1c-0.553,0-1-0.447-1-1s0.447-1,1-1h60.002c0.553,0,1,0.447,1,1S61.555,15.504,61.002,15.504z"/>
		</g>
		<g>
			<path d="M61.002,19.503H33.469c-0.553,0-1-0.447-1-1s0.447-1,1-1h27.533c0.553,0,1,0.447,1,1S61.555,19.503,61.002,19.503z"/>
		</g>
		<g>
			<path d="M31.469,23.498c-0.553,0-1-0.447-1-1v-1.995c0-0.553,0.447-1,1-1s1,0.447,1,1v1.995
				C32.469,23.051,32.021,23.498,31.469,23.498z"/>
		</g>
	</g>
</g>
</svg>
