<?xml version="1.0" encoding="utf-8"?>
<!-- Generator: Adobe Illustrator 24.3.0, SVG Export Plug-In . SVG Version: 6.00 Build 0)  -->
<svg version="1.1" id="Layer_1" xmlns="http://www.w3.org/2000/svg" xmlns:xlink="http://www.w3.org/1999/xlink" x="0px" y="0px"
	 width="32px" height="32px" viewBox="0 0 120 120" enable-background="new 0 0 120 120" xml:space="preserve">
<path fill="#1A2559" d="M63.708,47.465h-8.285c-0.005,0-0.007,0-0.008,0c-7.288,0-13.194,5.908-13.196,13.197
	c0.001,0.013,0.001,0.026,0.002,0.039v23.853c0.002,7.291,5.91,13.197,13.199,13.199h8.29c7.289-0.002,13.197-5.91,13.197-13.199
	V60.666C76.908,53.375,70.999,47.467,63.708,47.465z M73.909,60.666v4.513H60.335v-1.827c1.744-0.62,2.999-2.268,3.001-4.223v-2
	c-0.002-1.957-1.257-3.605-3.001-4.225v-2.438h3.373C69.341,50.474,73.898,55.033,73.909,60.666z M60.333,59.129
	c0,0.827-0.671,1.499-1.499,1.499c-0.829,0-1.499-0.672-1.499-1.499v-2c0-0.827,0.67-1.499,1.499-1.499
	c0.828,0,1.499,0.672,1.499,1.499l0.002,2H60.333z M55.376,50.466c0.023,0.001,0.039,0.001,0.039,0h1.919v2.438
	c-1.744,0.62-2.999,2.267-3.001,4.225l0.002,2c0,1.956,1.255,3.604,2.999,4.224v1.826H45.222v-4.697
	C45.329,54.949,49.826,50.496,55.376,50.466z M63.708,94.754l-8.286-0.002c-5.631,0.002-10.202-4.567-10.2-10.2V68.179h28.686
	l-0.001,16.375C73.898,90.185,69.341,94.743,63.708,94.754z"/>
<g>
	<path fill="#FBCF26" d="M60.302,47.465c-0.078-2.364-0.321-4.105-0.976-5.479c-0.547-1.258-1.916-2.211-3.291-2.146
		c-1.776,0.042-3.413,0.932-5.556,2.25c-0.834,0.522-1.641,0.726-2.35,0.728c-1.66-0.043-2.652-1-2.654-2.196
		c-0.002-0.757,0.399-1.891,1.856-3.224c1.312-1.219,4.601-3.13,8.301-5.437c3.715-2.331,7.908-5.131,11.325-8.497l-2.106-2.136
		c-3.131,3.091-7.159,5.803-10.811,8.089c-3.67,2.309-6.899,4.116-8.729,5.766c-1.876,1.704-2.832,3.601-2.835,5.439
		c-0.006,1.51,0.677,2.875,1.725,3.781c1.046,0.913,2.44,1.415,3.93,1.415c1.293,0,2.662-0.381,3.945-1.186
		c1.964-1.269,3.438-1.835,3.96-1.793c0.356,0.062,0.258-0.062,0.602,0.478c0.323,0.603,0.586,2.019,0.67,4.148H60.302z"/>
	<path fill="#FBCF26" d="M57.608,85.277c-1.105,1.105-1.105,2.899,0,4.004c1.105,1.105,2.898,1.105,4.004-0.001
		c1.104-1.105,1.106-2.897,0-4.003C60.506,84.172,58.713,84.171,57.608,85.277z"/>
	<path fill="#FBCF26" d="M73.909,60.666v4.513H60.335v-1.827c1.744-0.62,2.999-2.268,3.001-4.223v-2
		c-0.002-1.957-1.257-3.605-3.001-4.225v-2.438h3.373C69.341,50.474,73.898,55.033,73.909,60.666z"/>
	<path fill="#FBCF26" d="M55.376,50.466c0.023,0.001,0.039,0.001,0.039,0h1.919v2.438c-1.744,0.62-2.999,2.267-3.001,4.225l0.002,2
		c0,1.956,1.255,3.604,2.999,4.224v1.826H45.222v-4.697C45.329,54.949,49.826,50.496,55.376,50.466z"/>
</g>
</svg>
