<?xml version="1.0" encoding="UTF-8" standalone="no"?>
<!-- Created with Inkscape (http://www.inkscape.org/) -->

<svg
   width="50.46085mm"
   height="12.206626mm"
   viewBox="0 0 50.46085 12.206626"
   version="1.1"
   id="svg5"
   xmlns="http://www.w3.org/2000/svg"
   xmlns:svg="http://www.w3.org/2000/svg">
  <defs
     id="defs2" />
  <g
     id="layer1"
     transform="translate(-7.1049535,-13.913648)">
    <path
       style="fill:none;stroke:#000000;stroke-width:0.264583px;stroke-linecap:butt;stroke-linejoin:miter;stroke-opacity:1"
       d="M 57.492145,24.980737 C 42.56437,14.974664 37.782973,19.999557 33.478845,23.693868 29.174717,27.388179 19.698868,27.59557 11.128491,16.913745"
       id="path42" />
    <path
       style="fill:#000000;fill-opacity:1;stroke:#000000;stroke-width:0.0464093px;stroke-linecap:butt;stroke-linejoin:miter;stroke-opacity:1"
       d="m 42.843246,21.327956 c -1.368014,-0.223478 -2.1533,-0.752295 -3.190105,0.314437 -0.587413,0.693463 -1.46166,0.997562 -2.257368,1.014371 2.794956,1.404961 3.840306,0.45614 5.447473,-1.328808 z"
       id="path389" />
    <path
       style="fill:#000000;fill-opacity:1;stroke:#000000;stroke-width:0.0235472px;stroke-linecap:butt;stroke-linejoin:miter;stroke-opacity:1"
       d="m 52.661102,20.941114 c -0.144577,-0.688283 -0.03802,-1.156674 -0.732562,-1.452121 -0.435661,-0.151085 -0.739549,-0.50916 -0.893111,-0.882639 -0.153422,1.579759 0.486881,1.900827 1.625673,2.33476 z"
       id="path389-62" />
    <path
       style="fill:#000000;fill-opacity:1;stroke:#000000;stroke-width:0.0227492px;stroke-linecap:butt;stroke-linejoin:miter;stroke-opacity:1"
       d="m 37.548083,19.735725 c -0.343379,-0.586319 -0.389283,-1.048124 -1.116173,-1.10599 -0.445461,-0.0049 -0.833619,-0.239883 -1.088764,-0.535018 0.343525,1.494431 1.028573,1.592392 2.204935,1.641011 z"
       id="path389-35" />
    <path
       style="fill:#000000;fill-opacity:1;stroke:#000000;stroke-width:0.0395098px;stroke-linecap:butt;stroke-linejoin:miter;stroke-opacity:1"
       d="m 29.909332,23.550473 c -0.780275,-0.885297 -1.012065,-1.657244 -2.270386,-1.51421 -0.760989,0.139707 -1.500773,-0.131753 -2.033827,-0.550021 1.082447,2.433247 2.282776,2.37247 4.304213,2.064231 z"
       id="path389-5" />
    <path
       style="fill:#000000;fill-opacity:1;stroke:#000000;stroke-width:0.0229406px;stroke-linecap:butt;stroke-linejoin:miter;stroke-opacity:1"
       d="m 18.031504,25.74747 c -0.512631,-0.454635 -0.701129,-0.88298 -1.416064,-0.711019 -0.428582,0.134655 -0.874202,0.03087 -1.211139,-0.172234 0.796904,1.325147 1.484275,1.204714 2.627204,0.883251 z"
       id="path389-7" />
    <path
       style="fill:#000000;fill-opacity:1;stroke:#000000;stroke-width:0.0335673px;stroke-linecap:butt;stroke-linejoin:miter;stroke-opacity:1"
       d="m 17.307488,20.077252 c 0.989002,-0.164463 1.649696,0.01551 2.11232,-0.955905 0.24142,-0.611397 0.769718,-1.022648 1.310898,-1.218867 -2.240751,-0.313654 -2.736598,0.578968 -3.423218,2.174772 z"
       id="path389-6" />
    <path
       style="fill:#000000;fill-opacity:1;stroke:#000000;stroke-width:0.0447334px;stroke-linecap:butt;stroke-linejoin:miter;stroke-opacity:1"
       d="M 11.439522,17.185648 C 10.772502,16.027967 10.688678,15.11927 9.2601869,14.995352 8.3843345,14.979452 7.6243675,14.512043 7.1267867,13.928155 7.7814292,16.871477 9.1270893,17.07365 11.439522,17.185648 Z"
       id="path389-3" />
    <path
       style="fill:none;stroke:#000000;stroke-width:0.264583px;stroke-linecap:butt;stroke-linejoin:miter;stroke-opacity:1"
       d="M 19.159129,23.940696 C 17.993514,22.469051 16.707833,20.921585 17.634324,19.774028"
       id="path2884" />
    <path
       style="fill:none;stroke:#000000;stroke-width:0.264583px;stroke-linecap:butt;stroke-linejoin:miter;stroke-opacity:1"
       d="m 47.357847,19.784756 c -0.853099,1.1738 -2.964995,1.563069 -4.794341,1.671596"
       id="path3232" />
    <path
       style="fill:none;stroke:#000000;stroke-width:0.264583px;stroke-linecap:butt;stroke-linejoin:miter;stroke-opacity:1"
       d="m 22.201691,25.238413 c -1.329255,0.704397 -2.7783,0.94134 -4.421838,0.419312"
       id="path3234" />
    <path
       style="fill:none;stroke:#000000;stroke-width:0.264583px;stroke-linecap:butt;stroke-linejoin:miter;stroke-opacity:1"
       d="m 32.922468,24.111459 c -1.330219,0.06453 -2.639662,0.397727 -3.351177,-0.828479"
       id="path3820" />
    <path
       style="fill:none;stroke:#000000;stroke-width:0.264583px;stroke-linecap:butt;stroke-linejoin:miter;stroke-opacity:1"
       d="M 38.320273,20.136105 C 37.791152,20.023486 37.254584,19.849264 37.229547,19.298114"
       id="path4216" />
    <path
       style="fill:none;stroke:#000000;stroke-width:0.264583px;stroke-linecap:butt;stroke-linejoin:miter;stroke-opacity:1"
       d="m 52.881431,22.082742 c 0.02035,-0.438241 0.389224,-0.877496 -0.29936,-1.313673"
       id="path4759" />
  </g>
</svg>
