<svg width="24" height="24" viewBox="0 0 24 24" fill="none" xmlns="http://www.w3.org/2000/svg">
<path d="M20.4394 5.36998L13.365 1.16998C12.9431 0.920608 12.4706 0.794983 12 0.794983C11.5294 0.794983 11.0569 0.920608 10.635 1.17186L3.55873 5.37186C2.71498 5.87248 2.19373 6.79873 2.19373 7.80186V16.2019C2.19373 17.205 2.7131 18.1312 3.55873 18.6319L10.6331 22.8319C11.055 23.0831 11.5256 23.2069 11.9981 23.2069C12.4687 23.2069 12.9412 23.0812 13.3631 22.8319L20.4394 18.6319C21.2831 18.1312 21.8044 17.2031 21.8044 16.2019V7.79998C21.8044 6.79873 21.285 5.87061 20.4394 5.36998ZM14.9606 18.4856L14.9719 19.0894C14.9719 19.1625 14.925 19.245 14.8687 19.275L14.5106 19.4812C14.4544 19.5094 14.4056 19.4756 14.4056 19.4025L14.4 18.8081C14.0944 18.9356 13.7831 18.9656 13.5862 18.8869C13.5487 18.8719 13.5319 18.8175 13.5469 18.7537L13.6762 18.2081C13.6875 18.165 13.71 18.1219 13.74 18.0956C13.7512 18.0844 13.7625 18.0769 13.7737 18.0712C13.7944 18.06 13.815 18.0581 13.8319 18.0656C14.0456 18.1369 14.3175 18.1031 14.58 17.9719C14.9137 17.8031 15.1369 17.4619 15.1331 17.1244C15.1294 16.8169 14.9644 16.6912 14.5612 16.6875C14.0475 16.6894 13.5675 16.5881 13.56 15.8306C13.5544 15.2081 13.8769 14.5594 14.3906 14.1506L14.385 13.5412C14.385 13.4662 14.43 13.3837 14.4881 13.3537L14.835 13.1325C14.8912 13.1044 14.94 13.14 14.94 13.2131L14.9456 13.8225C15.2006 13.7212 15.4219 13.6931 15.6225 13.74C15.6656 13.7512 15.6862 13.8112 15.6675 13.8806L15.5325 14.4206C15.5212 14.4619 15.4987 14.5031 15.4706 14.5294C15.4601 14.5399 15.4481 14.5487 15.435 14.5556C15.4162 14.565 15.3994 14.5669 15.3825 14.565C15.2906 14.5444 15.0731 14.4975 14.73 14.67C14.37 14.8519 14.2444 15.165 14.2462 15.3975C14.25 15.675 14.3906 15.7594 14.8819 15.7669C15.5362 15.7781 15.8175 16.0631 15.825 16.7212C15.8344 17.3662 15.4894 18.0619 14.9606 18.4856ZM19.8994 7.14186L13.2056 11.2762C12.3712 11.7637 11.7562 12.3112 11.7544 13.3181V21.5662C11.7544 22.1681 11.9981 22.5581 12.3712 22.6725C12.2494 22.6931 12.1237 22.7081 12 22.7081C11.6081 22.7081 11.2219 22.6012 10.8825 22.4006L3.8081 18.2006C3.11623 17.79 2.68685 17.0231 2.68685 16.2V7.79998C2.68685 6.97686 3.11623 6.20998 3.8081 5.79936L10.8843 1.59936C11.2237 1.39873 11.61 1.29186 12.0019 1.29186C12.3937 1.29186 12.78 1.39873 13.1194 1.59936L20.1956 5.79936C20.7787 6.14623 21.1725 6.74436 21.2831 7.41748C21.045 6.91686 20.5162 6.78186 19.8994 7.14186Z" fill="#293138"/>
<path d="M18.585 17.0119L16.8225 18.0656C16.7756 18.0938 16.7419 18.1238 16.7419 18.18V18.6413C16.7419 18.6975 16.7794 18.7219 16.8263 18.6938L18.615 17.6063C18.6619 17.5781 18.6694 17.5275 18.6694 17.4713V17.0644C18.6694 17.0081 18.6319 16.9856 18.585 17.0119Z" fill="#4FA847"/>
</svg>
