<svg width="24" height="24" viewBox="0 0 24 24" fill="none" xmlns="http://www.w3.org/2000/svg">
<g clip-path="url(#clip0_112_831)">
<path d="M12.4373 13.131C12.4823 12.3356 12.8736 11.6335 13.4657 11.1371C14.0458 10.6493 14.8247 10.351 15.6799 10.351C16.5306 10.351 17.3093 10.6491 17.8886 11.1371C18.4817 11.6335 18.8706 12.3356 18.9171 13.131C18.9621 13.9466 18.6315 14.7079 18.0536 15.2717C17.4615 15.8436 16.6236 16.2049 15.6799 16.2049C14.7354 16.2049 13.8938 15.8458 13.3054 15.2717C12.7253 14.7081 12.3954 13.951 12.4418 13.1348L12.4373 13.131Z" fill="#235785"/>
<path d="M7.35818 14.8129C7.36344 15.1242 7.46394 15.7298 7.61318 16.2012C7.92856 17.2017 8.46387 18.1273 9.20506 18.9385C9.96669 19.7757 10.9064 20.4488 11.9894 20.9278C13.1281 21.4285 14.3641 21.6848 15.6466 21.6848C16.9291 21.6831 18.1651 21.4223 19.3036 20.9157C20.3866 20.4315 21.3267 19.7591 22.088 18.9175C22.8331 18.0973 23.3667 17.1724 23.6801 16.1712C23.837 15.6738 23.9373 15.1604 23.9791 14.6406C24.0181 14.1362 24.0016 13.6272 23.9298 13.1181C23.7892 12.1372 23.4431 11.1971 22.9141 10.3592C22.4315 9.58109 21.8049 8.90421 21.0597 8.33178L21.062 8.33103L13.5704 2.61115C13.5637 2.6059 13.5577 2.60065 13.5509 2.59615C13.0599 2.22078 12.2302 2.22228 11.6928 2.59765C11.1464 2.97846 11.0834 3.60734 11.5698 4.00315L11.5676 4.00465L14.6954 6.5329L5.1725 6.54246H5.15975C4.37281 6.54321 3.61494 7.05603 3.46662 7.7074C3.31287 8.36759 3.84819 8.91865 4.66887 8.91865L4.66737 8.92165L9.49287 8.91265L0.858498 15.4733C0.847998 15.4815 0.835998 15.4898 0.825498 15.498C0.0126853 16.1157 -0.249627 17.1462 0.262248 17.7938C0.783123 18.4542 1.88712 18.4587 2.70856 17.7975L7.40694 13.9707C7.40694 13.9707 7.33793 14.4878 7.34394 14.7951L7.35818 14.8129ZM19.4632 16.5415C18.4942 17.5217 17.1352 18.0808 15.6706 18.0808C14.2023 18.0831 12.8433 17.5337 11.8741 16.5542C11.4005 16.0744 11.0534 15.528 10.8376 14.9434C10.6267 14.3681 10.5453 13.7534 10.5993 13.143C10.6506 12.5475 10.8282 11.9698 11.1202 11.4482C11.4027 10.9393 11.7933 10.477 12.2714 10.0857C13.2151 9.32478 14.4127 8.90815 15.6652 8.90815C16.9231 8.90665 18.1209 9.31578 19.0646 10.0774C19.5427 10.4665 19.9317 10.9266 20.2158 11.4355C20.5084 11.957 20.6858 12.5351 20.7359 13.131C20.7892 13.7411 20.7078 14.3554 20.4976 14.9307C20.2826 15.5198 19.9347 16.0662 19.4602 16.546L19.4632 16.5415Z" fill="#E87500"/>
</g>
<defs>
<clipPath id="clip0_112_831">
<rect width="24" height="24" fill="white"/>
</clipPath>
</defs>
</svg>
