<svg width="24" height="24" viewBox="0 0 24 24" fill="none" xmlns="http://www.w3.org/2000/svg">
<path d="M22.0312 6.28123L22.0875 6.24373C21.975 6.03748 21.8062 5.84998 21.6375 5.75623L12.5812 0.543726C12.4312 0.449976 12.225 0.412476 12 0.412476C11.775 0.412476 11.5688 0.468726 11.4188 0.543726L2.41875 5.77498C2.1 5.96248 1.875 6.43123 1.875 6.78748V17.2312C1.875 17.4375 1.9125 17.6625 2.04375 17.8687L2.00625 17.8875C2.1 18.0375 2.23125 18.1687 2.3625 18.2437L11.4 23.475C11.55 23.5687 11.7563 23.6062 11.9813 23.6062C12.2063 23.6062 12.4125 23.55 12.5625 23.475L21.5625 18.2437C21.8813 18.0562 22.1063 17.5875 22.1063 17.2312V6.76873C22.125 6.61873 22.1063 6.44998 22.0312 6.28123ZM15.375 12.375V11.625H16.3125V10.6875H17.25V11.625H18.1875V12.375H17.25V13.3125H16.3125V12.375H15.375ZM15.9938 9.74998C15.2063 8.34373 13.7063 7.40623 12 7.40623C9.46875 7.40623 7.40625 9.46873 7.40625 12C7.40625 14.5312 9.46875 16.5937 12 16.5937C13.7063 16.5937 15.2063 15.6562 15.9938 14.2687L18.4125 15.6937C17.1375 17.9062 14.7375 19.4062 12 19.4062C7.9125 19.4062 4.59375 16.0875 4.59375 12C4.59375 7.91248 7.9125 4.59373 12 4.59373C14.7563 4.59373 17.1563 6.11248 18.4313 8.34373L15.9938 9.74998ZM21.5625 12.375H20.625V13.3125H19.875V12.375H18.75V11.625H19.875V10.6875H20.625V11.625H21.5625V12.375Z" fill="#9C033A"/>
</svg>
