<svg width="24" height="24" viewBox="0 0 24 24" fill="none" xmlns="http://www.w3.org/2000/svg">
<path d="M1.64252 0.1875L3.52783 21.3531L11.9875 23.7118L20.4707 21.3444L22.3575 0.1875H1.64252ZM18.4408 5.03662L17.8133 12.0876L17.8151 12.1256L17.8125 12.2132V12.2124L17.3666 17.1426L17.3175 17.5806L12 19.0513V19.0515L11.9959 19.0551L6.68758 17.5761L6.32814 13.5H8.93121L9.11589 15.5726L12.0008 16.3545L12 16.356V16.3556L14.8956 15.5627L15.2016 12.1875H9.14852L9.09658 11.6169L8.97827 10.2802L8.9162 9.5625H15.4316L15.6686 6.9375H5.74502L5.69308 6.36731L5.57495 5.03025L5.5127 4.3125H18.5029L18.4408 5.03662Z" fill="#1572B6"/>
</svg>
