<svg width="24" height="24" viewBox="0 0 24 24" fill="none" xmlns="http://www.w3.org/2000/svg">
<path d="M23.4 9.76875C22.5937 9.3 21.525 9.24375 20.625 9.50625C20.5125 8.53125 19.875 7.6875 19.125 7.0875L18.825 6.84375L18.5625 7.14375C18.0562 7.725 17.9062 8.7 17.9812 9.45C18.0375 9.99375 18.2062 10.5563 18.5437 11.0063C18.2812 11.1562 18 11.3625 17.7375 11.4562C17.2125 11.6437 16.6312 11.8312 16.0687 11.8312H14.8125V9.1875H12.375V4.5H9.56247V6.75H4.87497V9.1875H2.43747V11.8125H0.337474L0.299974 12.0938C0.206224 13.2937 0.356224 14.4563 0.862474 15.5625L1.06872 15.975L1.08747 16.0125C2.56872 18.525 5.15622 19.575 7.98747 19.575C13.4625 19.575 17.9812 17.1187 20.0437 11.9625C21.4312 12.0375 22.8562 11.625 23.5312 10.2938L23.7 9.95625L23.4 9.76875ZM5.24997 7.3125H7.12497V9.375H5.24997V7.3125ZM7.70622 15.6C7.70622 15.9187 7.44372 16.1813 7.12497 16.1813C6.80622 16.1813 6.54372 15.9187 6.54372 15.6C6.54372 15.2812 6.80622 15.0187 7.12497 15.0187C7.44372 15.0375 7.70622 15.2812 7.70622 15.6ZM5.24997 9.75H7.12497V11.8125H5.24997V9.75ZM2.81247 9.75H4.87497V11.8125H2.81247V9.75ZM8.00622 19.1625C5.04372 19.1437 3.44997 18.15 2.13747 16.8375C2.53122 16.8563 2.90622 16.875 3.24372 16.875C3.54372 16.875 3.84372 16.875 4.12497 16.8563C4.85622 16.8188 5.49372 16.725 6.01872 16.575C6.44997 17.5688 7.23747 18.4875 8.64372 19.1625H8.00622ZM9.56247 11.8125H7.49997V9.75H9.56247V11.8125ZM9.56247 9.375H7.49997V7.3125H9.56247V9.375ZM12 11.8125H9.93747V9.75H12V11.8125ZM12 9.375H9.93747V7.3125H12V9.375ZM12 6.9375H9.93747V4.875H12V6.9375ZM14.4375 11.8125H12.375V9.75H14.4375V11.8125ZM7.27497 15.225C7.23747 15.2062 7.18122 15.1875 7.12497 15.1875C6.89997 15.1875 6.71247 15.375 6.71247 15.6C6.71247 15.825 6.89997 16.0125 7.12497 16.0125C7.34997 16.0125 7.53747 15.825 7.53747 15.6C7.53747 15.5437 7.51872 15.4875 7.49997 15.45C7.46247 15.5063 7.42497 15.5438 7.34997 15.5438C7.25622 15.5438 7.18122 15.4688 7.18122 15.375C7.19997 15.3 7.23747 15.2437 7.27497 15.225Z" fill="#019BC6"/>
</svg>
