<svg width="24" height="24" viewBox="0 0 24 24" fill="none" xmlns="http://www.w3.org/2000/svg">
<path d="M23.7506 18.4575C22.8956 18.675 22.3669 18.4669 21.8925 17.7544C20.8275 16.1587 19.6519 14.6362 18.5175 13.0856C18.3713 12.885 18.2194 12.6881 18.03 12.4387C16.6875 14.25 15.3469 15.975 14.0888 17.7694C13.6388 18.4106 13.1663 18.69 12.3263 18.4631L17.3738 11.6887L12.675 5.57062C13.4831 5.41312 14.0419 5.49375 14.5369 6.2175C15.63 7.815 16.8356 9.33562 18.0375 10.9444C19.2469 9.34125 20.4375 7.81875 21.5625 6.23625C22.0144 5.595 22.5 5.35125 23.3119 5.5875C22.6969 6.40312 22.095 7.20562 21.4894 8.0025C20.6719 9.07687 19.8694 10.1644 19.0219 11.2162C18.72 11.5912 18.7688 11.835 19.0388 12.1894C20.6063 14.25 22.155 16.3313 23.7506 18.4575ZM0.249399 11.5763C0.384399 10.8994 0.474399 10.2094 0.661899 9.54562C1.7869 5.5275 6.3994 3.85687 9.56815 6.34687C11.4244 7.8075 11.8856 9.86625 11.7938 12.1875H1.33127C1.17377 16.3519 4.1719 18.8662 7.99315 17.5837C9.33377 17.1337 10.1231 16.0837 10.5188 14.7712C10.7194 14.1131 11.0513 14.01 11.67 14.1975C11.3531 15.84 10.635 17.2125 9.13503 18.0712C6.88503 19.3575 3.67315 18.9412 1.98377 17.1544C0.986274 16.1044 0.562524 14.7975 0.375024 13.3856C0.346899 13.1606 0.288774 12.9394 0.243774 12.7162C0.247524 12.3362 0.249399 11.9562 0.249399 11.5763ZM1.35002 11.2969H10.8056C10.7438 8.28562 8.86877 6.14625 6.30565 6.1275C3.49315 6.105 1.4719 8.19375 1.35002 11.2969Z" fill="black"/>
</svg>
