<svg width="24" height="24" viewBox="0 0 24 24" fill="none" xmlns="http://www.w3.org/2000/svg">
<g clip-path="url(#clip0_117_2)">
<path fill-rule="evenodd" clip-rule="evenodd" d="M12 0.956787C5.74743 0.956787 0.677246 6.02585 0.677246 12.2795C0.677246 17.2824 3.92156 21.5265 8.42043 23.0238C8.98612 23.1288 9.19387 22.7782 9.19387 22.4792C9.19387 22.2092 9.18337 21.3172 9.1785 20.3711C6.0285 21.056 5.36381 19.0352 5.36381 19.0352C4.84875 17.7264 4.10662 17.3784 4.10662 17.3784C3.07912 16.6757 4.18406 16.6903 4.18406 16.6903C5.32087 16.77 5.91975 17.8571 5.91975 17.8571C6.92962 19.5877 8.56856 19.0875 9.21468 18.7984C9.31631 18.0665 9.60975 17.5669 9.93356 17.2841C7.41862 16.9982 4.77468 16.0271 4.77468 11.6885C4.77468 10.4523 5.21718 9.44229 5.9415 8.64916C5.82375 8.36416 5.43618 7.21254 6.051 5.65291C6.051 5.65291 7.00162 5.3486 9.16537 6.81354C10.0687 6.56247 11.0376 6.43629 12 6.43197C12.9619 6.43629 13.9312 6.5621 14.8363 6.81316C16.9974 5.34822 17.9469 5.65254 17.9469 5.65254C18.5632 7.21197 18.1757 8.36379 18.0581 8.64879C18.7841 9.44191 19.2234 10.452 19.2234 11.6882C19.2234 16.037 16.5746 16.9944 14.0533 17.2749C14.4596 17.6263 14.8215 18.3155 14.8215 19.3717C14.8215 20.8867 14.8084 22.106 14.8084 22.479C14.8084 22.7803 15.0124 23.1334 15.5861 23.0222C20.0824 21.5233 23.3229 17.2805 23.3229 12.2795C23.3227 6.02622 18.2531 0.956975 12 0.956975V0.956787Z" fill="#181616"/>
<path d="M4.96573 17.2136C4.9408 17.2699 4.8523 17.2868 4.77167 17.2483C4.68917 17.2116 4.64323 17.1349 4.66986 17.0785C4.69423 17.0203 4.78292 17.0044 4.86486 17.0432C4.94736 17.0801 4.99423 17.1576 4.96555 17.2138L4.96573 17.2136ZM5.42436 17.7253C5.37055 17.7754 5.26498 17.7521 5.19336 17.6728C5.11911 17.5941 5.10523 17.4885 5.16017 17.4377C5.21605 17.3878 5.31842 17.4115 5.39267 17.4902C5.46655 17.5701 5.48117 17.6747 5.42455 17.7255L5.42436 17.7253ZM5.87098 18.3773C5.80161 18.4256 5.68798 18.3805 5.61786 18.2798C5.54848 18.1789 5.54848 18.058 5.61973 18.0098C5.68967 17.9614 5.80161 18.0051 5.87286 18.1048C5.94186 18.207 5.94186 18.328 5.87098 18.3771V18.3773ZM6.48242 19.0075C6.42055 19.0759 6.28817 19.0575 6.19142 18.9643C6.09261 18.873 6.06505 18.7431 6.12711 18.6748C6.19011 18.6062 6.32305 18.6253 6.42036 18.718C6.51917 18.8091 6.54898 18.9392 6.4828 19.0073L6.48242 19.0075ZM7.32617 19.3733C7.29861 19.462 7.17148 19.5023 7.04305 19.4644C6.91498 19.4256 6.83117 19.3219 6.85742 19.2323C6.88367 19.1428 7.01173 19.101 7.14092 19.1413C7.26898 19.18 7.3528 19.2831 7.32617 19.3733ZM8.25298 19.441C8.25617 19.5343 8.14742 19.6116 8.01298 19.6135C7.87742 19.6166 7.76773 19.5409 7.76642 19.449C7.76642 19.3547 7.87292 19.2784 8.0083 19.2758C8.14273 19.2733 8.25317 19.3483 8.25317 19.4408L8.25298 19.441ZM9.11511 19.2943C9.13123 19.3853 9.03767 19.4788 8.90398 19.5038C8.77273 19.5281 8.65086 19.4715 8.63398 19.3813C8.61786 19.288 8.71311 19.1944 8.84436 19.1702C8.97823 19.1471 9.09823 19.2021 9.11511 19.2945V19.2943Z" fill="#181616"/>
</g>
<defs>
<clipPath id="clip0_117_2">
<rect width="24" height="24" fill="white"/>
</clipPath>
</defs>
</svg>
