<svg width="24" height="24" viewBox="0 0 24 24" fill="none" xmlns="http://www.w3.org/2000/svg">
<g clip-path="url(#clip0_112_811)">
<path d="M0.375 0.1875V23.625H23.8125V0.1875H0.375ZM12.7723 20.1587C12.4264 20.8616 11.766 21.3234 11.0008 21.5464C9.825 21.8164 8.70037 21.6624 7.86375 21.1603C7.30387 20.8168 6.86663 20.2881 6.56981 19.6789L8.35481 18.5858C8.37037 18.5923 8.41725 18.6771 8.47988 18.7866C8.7075 19.1679 8.90381 19.4379 9.28969 19.6275C9.66881 19.7569 10.5011 19.8396 10.8225 19.1724C11.0188 18.8331 10.9564 17.7422 10.9564 16.5353C10.9562 14.6387 10.965 12.75 10.965 10.875H13.1604C13.1604 12.9375 13.1717 14.8909 13.1604 16.9035C13.1651 18.1373 13.2722 19.2371 12.7723 20.1587ZM21.8799 19.5384C21.1168 22.1488 16.8621 22.2336 15.1618 20.5089C14.8026 20.103 14.5774 19.8909 14.3631 19.4224C15.2666 18.9026 15.2666 18.9026 16.1458 18.3939C16.6234 19.128 17.0649 19.5317 17.8594 19.6969C18.9371 19.8285 20.0214 19.4582 19.7782 18.3135C19.5283 17.3786 17.5714 17.1512 16.2396 16.1514C14.8875 15.2434 14.5706 13.0369 15.6818 11.7761C16.0521 11.3098 16.6836 10.9618 17.3462 10.7946L18.0377 10.7051C19.3654 10.6783 20.1952 11.0289 20.8044 11.7092C20.9739 11.8809 21.1123 12.0662 21.3711 12.4676C20.6638 12.9184 20.6661 12.9141 19.653 13.5699C19.4366 13.1038 19.0776 12.8113 18.6981 12.6842C18.1089 12.5057 17.3661 12.6997 17.2119 13.3223C17.1585 13.5141 17.1696 13.6926 17.2545 14.0094C17.4932 14.5538 18.2942 14.7904 19.0127 15.1206C21.081 15.9594 21.7794 16.8589 21.9512 17.9295C22.1166 18.8512 21.9113 19.4492 21.8799 19.5384Z" fill="#F0DB4F"/>
</g>
<defs>
<clipPath id="clip0_112_811">
<rect width="24" height="24" fill="white"/>
</clipPath>
</defs>
</svg>
