<svg width="24" height="24" viewBox="0 0 24 24" fill="none" xmlns="http://www.w3.org/2000/svg">
<path d="M8.92816 18.3975C5.32966 19.4029 11.1176 21.4798 15.6997 19.5167C14.9492 19.2249 14.4109 18.8884 14.4109 18.8884C12.3677 19.2746 11.4199 19.305 9.5651 19.0931C8.03435 18.9178 8.92816 18.3975 8.92816 18.3975ZM15.1511 16.4362C12.4429 16.9573 10.8785 16.9406 8.89722 16.7362C7.36516 16.5778 8.3681 15.8353 8.3681 15.8353C4.40491 17.1508 10.5744 18.6435 16.1135 17.0233C15.5248 16.8159 15.1511 16.4362 15.1511 16.4362ZM17.2734 5.07842C17.2736 5.07842 9.26135 7.07886 13.0879 11.4885C14.2174 12.7888 12.7916 13.9579 12.7916 13.9579C12.7916 13.9579 15.6583 12.4783 14.342 10.6247C13.1122 8.89686 12.1695 8.03848 17.2734 5.07842ZM19.148 20.2929C19.148 20.2929 19.8097 20.8385 18.419 21.2602C15.7749 22.0612 7.41166 22.3027 5.08872 21.2923C4.25435 20.9289 5.81979 20.4251 6.31235 20.3188C6.82591 20.2076 7.11916 20.2279 7.11916 20.2279C6.19066 19.574 1.11672 21.5122 4.54254 22.0682C13.884 23.5824 21.5707 21.3862 19.148 20.2929ZM15.9375 14.6055C16.3865 14.2991 17.0068 14.033 17.0068 14.033C17.0068 14.033 15.2398 14.349 13.4794 14.4969C11.3242 14.6777 9.01254 14.7133 7.8521 14.558C5.10485 14.1907 9.35829 13.1803 9.35829 13.1803C9.35829 13.1803 7.70604 13.0685 5.67504 14.051C3.27279 15.2126 11.6171 15.7421 15.9375 14.6055ZM16.9892 17.4452C16.9689 17.4995 16.9014 17.5607 16.9014 17.5607C22.7651 16.0192 20.6092 12.1271 17.8055 13.1122C17.5595 13.1992 17.4305 13.4015 17.4305 13.4015C17.4305 13.4015 17.586 13.3389 17.9327 13.2665C19.35 12.9712 21.3806 15.1639 16.9892 17.4452ZM12.0339 13.1379C11.1688 11.1825 8.23516 9.47173 12.0352 6.47061C16.7735 2.73055 14.3422 0.297546 14.3422 0.297546C15.3228 4.16155 10.8827 5.32873 9.27991 7.73511C8.18848 9.3748 9.8156 11.1367 12.0339 13.1379ZM17.1478 22.8407C13.5502 23.5179 9.11266 23.439 6.48148 23.0045C6.48148 23.0045 7.02035 23.4508 9.7901 23.6291C14.0043 23.8985 20.4776 23.4791 20.6306 21.4849C20.6308 21.4849 20.3362 22.2409 17.1478 22.8407Z" fill="#EA2D2E"/>
</svg>
