<svg width="24" height="24" viewBox="0 0 24 24" fill="none" xmlns="http://www.w3.org/2000/svg">
<path fill-rule="evenodd" clip-rule="evenodd" d="M21.3418 19.6115C21.0052 19.3344 20.6613 19.0638 20.3465 18.7631C19.9959 18.4284 19.7756 18.0236 19.8236 17.511C19.8512 17.216 19.7831 16.9623 19.4274 16.8637C19.511 16.6473 19.5894 16.5022 19.6211 16.3475C19.6563 16.175 19.6545 15.9937 19.6593 15.8162C19.7088 13.9487 19.0342 12.3116 18.035 10.7846C17.5749 10.0818 17.0943 9.39166 16.6038 8.70972C15.8366 7.64322 15.5615 6.4451 15.5477 5.15078C15.5398 4.5533 15.4719 3.95812 15.345 3.37422C15.0988 2.24172 14.492 1.35616 13.3916 0.881222C12.5484 0.517097 11.6756 0.44491 10.7852 0.677972C9.49122 1.01641 8.70879 1.9781 8.72341 3.31947C8.73728 4.61041 8.8016 5.90303 8.89628 7.19097C8.95028 7.92091 8.83778 8.55072 8.35347 9.12972C7.88772 9.68641 7.4711 10.287 7.0676 10.8917C6.83716 11.2374 6.63316 11.6141 6.49066 12.0037C6.10253 13.0655 5.74572 14.1362 5.12641 15.0975C4.89691 15.4537 4.87085 15.8523 5.03378 16.2598C5.07597 16.3653 5.10185 16.5277 5.05047 16.6127C4.6091 17.3452 4.11091 17.9898 3.1631 18.1305C2.4176 18.2413 2.38085 18.3768 2.40353 19.1454C2.42228 19.7711 2.41497 20.4026 2.35103 21.0243C2.28297 21.6909 2.35253 21.872 2.99641 22.0318C4.48216 22.4008 5.9801 22.7156 7.40116 23.3169C8.00622 23.5728 8.61335 23.484 9.10066 22.9863C9.60935 22.4668 10.2521 22.2635 10.9464 22.2628C12.1248 22.2618 13.3037 22.3187 14.4827 22.332C14.8018 22.3357 14.985 22.4544 15.1134 22.7443C15.2709 23.0992 15.5372 23.36 15.9468 23.4054C16.733 23.492 17.4493 23.3754 18.045 22.7756C18.7796 22.0353 19.6267 21.4507 20.5978 21.0455C20.8757 20.9295 21.1374 20.747 21.3671 20.549C21.7854 20.1887 21.7633 19.9592 21.3418 19.6115ZM11.7048 4.52247C11.847 4.03478 12.1805 3.71828 12.6879 3.62228C13.1147 3.54166 13.476 3.75128 13.7452 4.23091C14.0351 4.74803 14.1303 5.28841 13.8828 5.85428C13.6798 6.31816 13.5845 6.36185 13.1098 6.20453C13.0209 6.1751 12.9341 6.14022 12.7766 6.08228C12.9093 5.97091 12.993 5.88822 13.0886 5.82316C13.3012 5.67841 13.3608 5.47478 13.341 5.23291C13.3149 4.91528 13.0652 4.63403 12.809 4.6376C12.5793 4.64078 12.3849 4.85641 12.359 5.18416C12.3429 5.38835 12.3768 5.59647 12.3915 5.8571C11.7453 5.66529 11.5082 5.19616 11.7048 4.52247ZM9.31422 4.10041C9.5531 3.73891 9.91366 3.66653 10.2707 3.90841C10.6511 4.16641 10.9357 4.89391 10.7887 5.32891C10.7353 5.48716 10.5774 5.61016 10.467 5.7491L10.3537 5.67897C10.3106 5.44403 10.302 5.19428 10.2118 4.97903C10.1548 4.84254 9.9761 4.75703 9.85197 4.64866C9.73535 4.78722 9.53453 4.91922 9.52253 5.06641C9.50603 5.26966 9.61197 5.49391 9.70422 5.69097C9.76253 5.81491 9.89191 5.90566 10.0254 6.05022L9.66503 6.33335C9.09916 5.8271 8.93097 4.6796 9.31422 4.10041ZM16.3762 16.139C16.3382 16.6273 16.2825 16.6477 15.7916 16.7199C15.443 16.7709 15.3493 16.8617 15.3317 17.2757C15.3124 17.76 15.3117 18.2449 15.3294 18.7293C15.3408 19.0612 15.2287 19.3215 15.0003 19.553C13.7321 20.8385 12.2169 21.4477 10.4043 21.2267C9.62247 21.1312 9.11135 20.6553 8.69866 19.9818C8.88241 19.9138 9.01835 19.868 9.15091 19.8142C9.73628 19.5761 9.84578 19.0727 9.37835 18.6373C9.0251 18.3078 8.63097 18.0217 8.25203 17.72C7.88566 17.4285 7.51441 17.1429 7.14747 16.8521C6.83472 16.604 6.71528 16.2843 6.70778 15.8793C6.69016 14.9077 6.89003 13.9987 7.29616 13.1143C7.65841 12.3251 7.9391 11.4986 8.27847 10.6983C8.45378 10.2855 8.63585 9.86303 8.8931 9.5006C9.14041 9.15297 9.29322 8.81266 9.26585 8.38685C9.2501 8.1476 9.26285 7.90647 9.26285 7.66628L9.39541 7.60028C9.60935 7.78497 9.82703 7.96572 10.0372 8.1551C10.7957 8.83872 11.517 8.87003 12.347 8.28072C12.701 8.02928 13.0839 7.8176 13.4583 7.59597C13.5515 7.54085 13.6631 7.51666 13.821 7.4576C14.2243 8.40747 14.6201 9.33878 15.0163 10.2701C15.2173 10.7433 15.3785 11.2389 15.6283 11.6852C16.1291 12.5805 16.3955 13.5251 16.3914 14.5487C16.3892 15.0793 16.4171 15.6118 16.3762 16.139Z" fill="black"/>
</svg>
