<svg width="24" height="24" viewBox="0 0 24 24" fill="none" xmlns="http://www.w3.org/2000/svg">
<path fill-rule="evenodd" clip-rule="evenodd" d="M16.967 10.7404C16.8977 9.84225 16.6865 8.97619 16.3929 8.12775C15.7847 6.23325 14.8085 4.55663 13.4336 3.114C13.086 2.74913 12.6993 2.41481 12.4569 1.96069C12.3035 1.67344 12.1575 1.38225 12.008 1.09275L11.9133 0.854065C11.8974 0.908815 11.8873 0.928315 11.8867 0.948003C11.8745 1.41994 11.6072 1.74 11.2742 2.03869C10.8997 2.37488 10.5512 2.73975 10.1913 3.09206L9.08491 4.54763C8.78641 5.09606 8.48829 5.6445 8.19016 6.19294L7.59204 7.80863L7.57404 7.83375C7.24479 8.91525 7.08241 10.0271 7.00254 11.1503C6.97254 11.5723 7.00666 12.0006 7.03047 12.4249C7.06441 13.0314 7.16979 13.6277 7.32785 14.2146C7.90197 16.3468 9.0671 18.1155 10.6599 19.6181C10.956 19.8973 11.2597 20.1512 11.5687 20.4169C11.6216 20.2359 11.6638 20.055 11.7118 19.8741C11.7598 19.6939 11.8083 19.5146 11.8408 19.3339C11.8082 19.5146 11.7716 19.6939 11.7354 19.8741L11.5805 20.4169L11.7189 20.8858L11.8472 21.6141L11.9083 22.374C11.9077 22.5283 11.9015 22.683 11.9109 22.8371C11.9132 22.8765 11.9649 22.9129 11.9938 22.9508L12.2518 23.0413L12.5207 23.1459L12.4745 22.4704L12.4725 21.8051L12.5653 20.7917L12.6326 20.571L12.8252 20.2297C13.0629 20.0385 13.3181 19.8649 13.5347 19.6521C13.9265 19.2669 14.3175 18.8769 14.6681 18.4553C15.1245 17.9087 15.5142 17.3097 15.8289 16.671C16.0393 16.2428 16.2373 15.8059 16.4012 15.3583C16.5455 14.9638 16.635 14.5493 16.7488 14.1435C16.7589 14.1143 16.7724 14.0856 16.7788 14.0558C17.0139 12.9606 17.0535 11.8543 16.967 10.7404ZM12.5422 19.9982L12.3913 19.6676L12.5422 19.9982L12.764 20.1876L12.5422 19.9982Z" fill="#4FAA41"/>
</svg>
