<svg width="24" height="24" viewBox="0 0 24 24" fill="none" xmlns="http://www.w3.org/2000/svg">
<g clip-path="url(#clip0_112_827)">
<path d="M0.375 11.9832V23.7019H23.8125V0.264404H0.375V11.9832ZM19.2619 11.0457C19.8232 11.1759 20.3334 11.4695 20.7281 11.8894C20.9454 12.1156 21.1343 12.3675 21.2906 12.6394C21.2906 12.6694 20.2781 13.3538 19.6613 13.7363C19.6388 13.7513 19.5487 13.6538 19.4494 13.5057C19.3368 13.3113 19.1768 13.1487 18.9843 13.033C18.7918 12.9172 18.5732 12.8522 18.3488 12.8438C17.6381 12.795 17.1806 13.1682 17.1844 13.7813C17.1785 13.9339 17.2135 14.0854 17.2856 14.22C17.4412 14.5444 17.7319 14.7375 18.6431 15.1313C20.3213 15.8532 21.0394 16.3294 21.4856 17.0063C21.9844 17.7563 22.095 18.9675 21.7575 19.8638C21.3825 20.8388 20.4637 21.5007 19.1644 21.72C18.5709 21.788 17.9713 21.7817 17.3794 21.7013C16.476 21.5547 15.6427 21.1246 15 20.4732C14.7844 20.235 14.3644 19.6144 14.3906 19.5694C14.4591 19.5186 14.5311 19.4728 14.6063 19.4325L15.4688 18.9375L16.1419 18.5475L16.2825 18.7557C16.5198 19.0951 16.8219 19.3844 17.1712 19.6069C17.9212 20.0007 18.945 19.9463 19.4513 19.4907C19.6212 19.3237 19.7273 19.1024 19.7509 18.8653C19.7745 18.6283 19.7143 18.3904 19.5806 18.1932C19.3931 17.9325 19.0181 17.7132 17.97 17.2557C16.7606 16.7344 16.2394 16.4119 15.7631 15.8982C15.4658 15.5591 15.2463 15.1592 15.12 14.7263C15.0258 14.2317 15.0119 13.7253 15.0787 13.2263C15.3281 12.0582 16.2037 11.2425 17.4825 11.0007C18.0747 10.9274 18.6746 10.9438 19.2619 11.0494V11.0457ZM13.7606 12.0282V12.9882H10.7175V21.6563H8.55938V12.9863H5.50875V12.0488C5.50056 11.726 5.50932 11.4031 5.535 11.0813C5.54625 11.0663 7.41 11.0588 9.66 11.0625H13.7494L13.7606 12.0282Z" fill="#007ACC"/>
</g>
<defs>
<clipPath id="clip0_112_827">
<rect width="24" height="24" fill="white"/>
</clipPath>
</defs>
</svg>
