<svg width="24" height="24" viewBox="0 0 24 24" fill="none" xmlns="http://www.w3.org/2000/svg">
<g clip-path="url(#clip0_112_829)">
<path d="M13.6125 15.0938C13.65 15.1313 13.725 15.1875 13.7812 15.1875H14.775C14.8313 15.1875 14.9062 15.1313 14.9437 15.0938L15.2062 14.8125C15.2437 14.775 15.2625 14.7375 15.2625 14.7L15.5438 13.7438C15.5625 13.65 15.5437 13.5562 15.4875 13.5L15.2812 13.3312C15.2437 13.2937 15.1687 13.3125 15.1125 13.3125H14.2125L14.175 13.275L14.1562 13.2562C14.1187 13.2562 14.0813 13.2375 14.0438 13.275L13.6875 13.5C13.65 13.5 13.6312 13.5937 13.6125 13.6312L13.3125 14.55C13.275 14.6437 13.2938 14.7562 13.3688 14.8312L13.6125 15.0938ZM13.7625 20.0438L13.6875 20.0625H13.4625L14.8125 16.1063C14.85 15.975 14.7937 15.825 14.6625 15.7875L14.5875 15.7687H12.3187C12.225 15.7875 12.15 15.8625 12.1312 15.9562L12 16.425C11.9625 16.5562 12.0562 16.6687 12.1875 16.7062L12.2438 16.6875H12.5812L11.2125 20.6063C11.175 20.7375 11.2312 20.9062 11.3625 20.9625L11.4375 21.0187H13.5375C13.65 21.0187 13.7437 20.925 13.7812 20.8125L13.9125 20.3625C13.9687 20.2312 13.8938 20.0813 13.7625 20.0438ZM23.7188 16.35L23.3625 15.8812V15.8625C23.3062 15.8062 23.25 15.75 23.175 15.75H21.825C21.75 15.75 21.6938 15.825 21.6375 15.8625L21.2625 16.3125H20.6813L20.2875 15.8625V15.8438C20.25 15.7875 20.175 15.75 20.1 15.75H19.35L23.1375 11.9625L18.9 7.7625L22.6875 3.8625V2.175L22.1625 1.5H14.4938L13.875 2.15625V2.7L11.7563 0.5625L10.3125 1.96875L9.8625 1.5H2.2875L1.6875 2.19375V3.95625L2.25 4.5H2.8125V9.39375L0.1875 12.0187L2.8125 14.6437V20.6437L3.7875 21.1875H5.9625L7.66875 19.4062L11.7188 23.4562L14.4375 20.7375C14.4563 20.8125 14.5125 20.8313 14.6063 20.8688L14.6813 20.8312H16.4437C16.5562 20.8312 16.65 20.8125 16.6688 20.7188L16.8 20.3438C16.8375 20.2125 16.7812 20.1 16.65 20.0625L16.575 20.0812H16.5L17.1375 18.075L17.5687 17.6437H18.5062L17.5687 20.625C17.5312 20.7563 17.6062 20.8313 17.7375 20.8875L17.8125 20.85H19.5187C19.6125 20.85 19.7063 20.8312 19.7438 20.7375L19.8937 20.4C19.95 20.2688 19.875 20.1562 19.7625 20.1C19.7437 20.0812 19.7063 20.1 19.6688 20.1H19.5938L20.3812 17.6625H21.525L20.5687 20.6437C20.5312 20.775 20.6062 20.85 20.7375 20.8875L20.8125 20.8312H22.6875C22.7812 20.8312 22.875 20.8125 22.9125 20.7188L23.0625 20.3438C23.1187 20.2125 23.0437 20.1 22.9125 20.0625C22.8937 20.0438 22.8562 20.0812 22.8187 20.0812H22.6875L23.7375 16.6125C23.775 16.5187 23.7563 16.4062 23.7188 16.35ZM11.7563 0.91875L13.875 3.0375V3.91875L14.5125 4.6875H14.8125L9.375 9.9375V4.6875H9.99375L10.5 3.9V2.23125L10.4625 2.175L11.7563 0.91875ZM0.54375 12.0187L2.8125 9.75V14.2875L0.54375 12.0187ZM7.8375 19.2L18.7875 7.95L22.8 11.9813L19.0125 15.7687H18.9938C18.9375 15.7875 18.9 15.825 18.8625 15.8625L18.4688 16.3125H17.925L17.5125 15.8625C17.475 15.8062 17.4 15.75 17.325 15.75H15.675C15.5625 15.75 15.4688 15.825 15.4313 15.9375L15.2812 16.4062C15.2437 16.5375 15.3 16.65 15.4313 16.7062H15.7125L14.5125 20.25L11.6812 23.1L7.8375 19.2Z" fill="#179A33"/>
</g>
<defs>
<clipPath id="clip0_112_829">
<rect width="24" height="24" fill="white"/>
</clipPath>
</defs>
</svg>
