<svg width="984" height="177" viewBox="0 0 984 177" fill="none" xmlns="http://www.w3.org/2000/svg">
<path d="M0 45.7977L23.5067 39.3629C47.0133 33.0117 94.0267 20.1422 140.821 15.1281C187.725 10.114 234.301 12.9553 281.205 15.5459C328 18.2201 375.013 20.7272 421.808 21.145C468.712 21.5629 515.288 19.8915 562.192 14.4596C608.987 9.02762 656 -0.164889 702.795 0.00224787C749.699 0.0858162 796.275 9.6126 843.179 17.8023C889.973 25.992 936.987 33.0117 960.493 36.438L984 39.9479V177H960.493C936.987 177 889.973 177 843.179 177C796.275 177 749.699 177 702.795 177C656 177 608.987 177 562.192 177C515.288 177 468.712 177 421.808 177C375.013 177 328 177 281.205 177C234.301 177 187.725 177 140.821 177C94.0267 177 47.0133 177 23.5067 177H0V45.7977Z" fill="#FA7268"/>
<path d="M0 39.1123L23.5067 44.3771C47.0133 49.7254 94.0267 60.2551 140.821 58.0823C187.725 55.8259 234.301 40.7836 281.205 39.1123C328 37.4409 375.013 49.1405 421.808 53.0682C468.712 56.9123 515.288 53.0682 562.192 45.547C608.987 38.0259 656 26.8277 702.795 20.7272C749.699 14.6268 796.275 13.4568 843.179 16.131C889.973 18.8052 936.987 25.1564 960.493 28.4155L984 31.5911V177H960.493C936.987 177 889.973 177 843.179 177C796.275 177 749.699 177 702.795 177C656 177 608.987 177 562.192 177C515.288 177 468.712 177 421.808 177C375.013 177 328 177 281.205 177C234.301 177 187.725 177 140.821 177C94.0267 177 47.0133 177 23.5067 177H0V39.1123Z" fill="#EF5F67"/>
<path d="M0 47.4691L23.5067 48.9733C47.0133 50.5611 94.0267 53.5695 140.821 56.6616C187.725 59.7536 234.301 62.762 281.205 67.7761C328 72.7902 375.013 79.81 421.808 79.225C468.712 78.64 515.288 70.6175 562.192 68.6118C608.987 66.6898 656 70.8682 702.795 76.3001C749.699 81.7321 796.275 88.4175 843.179 89.8382C889.973 91.1753 936.987 87.3311 960.493 85.3255L984 83.4034V177H960.493C936.987 177 889.973 177 843.179 177C796.275 177 749.699 177 702.795 177C656 177 608.987 177 562.192 177C515.288 177 468.712 177 421.808 177C375.013 177 328 177 281.205 177C234.301 177 187.725 177 140.821 177C94.0267 177 47.0133 177 23.5067 177H0V47.4691Z" fill="#E34C67"/>
<path d="M0 89.2532L23.5067 93.181C47.0133 97.0251 94.0267 104.881 140.821 105.298C187.725 105.716 234.301 98.6964 281.205 99.95C328 101.203 375.013 110.73 421.808 110.145C468.712 109.56 515.288 99.0307 562.192 95.2702C608.987 91.5096 656 94.518 702.795 97.0251C749.699 99.5321 796.275 101.538 843.179 100.953C889.973 100.368 936.987 97.3594 960.493 95.7716L984 94.2673V177H960.493C936.987 177 889.973 177 843.179 177C796.275 177 749.699 177 702.795 177C656 177 608.987 177 562.192 177C515.288 177 468.712 177 421.808 177C375.013 177 328 177 281.205 177C234.301 177 187.725 177 140.821 177C94.0267 177 47.0133 177 23.5067 177H0V89.2532Z" fill="#D53867"/>
<path d="M0 128.53L23.5067 126.859C47.0133 125.188 94.0267 121.845 140.821 124.937C187.725 127.945 234.301 137.472 281.205 138.726C328 139.979 375.013 132.959 421.808 133.712C468.712 134.38 515.288 142.737 562.192 142.152C608.987 141.651 656 132.124 702.795 129.784C749.699 127.444 796.275 132.124 843.179 137.138C889.973 142.152 936.987 147.5 960.493 150.091L984 152.765V177H960.493C936.987 177 889.973 177 843.179 177C796.275 177 749.699 177 702.795 177C656 177 608.987 177 562.192 177C515.288 177 468.712 177 421.808 177C375.013 177 328 177 281.205 177C234.301 177 187.725 177 140.821 177C94.0267 177 47.0133 177 23.5067 177H0V128.53Z" fill="#C62368"/>
</svg>
